<svg xmlns="http://www.w3.org/2000/svg" width="865.76" height="682.89" viewBox="0 0 865.76 682.89"><path d="M138.23,470.82c-102.39-160.07,37.53-288.5,37.53-288.5C303.66,48.64,400.68,46,412.31,46.2c.84,0,1.68,0,2.53,0,15.37-.17,157.08,1.15,212.61,105.48,0,0,11.06,26.5,0,81.24,0,0-16.87,64.32,26.76,90.36,0,0,124.32,53.61,109.57,118.94,0,0-22.89,133-299.79,168.38,0,0-193.28,29.81-305.48-113.4Z" fill="#f25d00"/><path d="M763.78,442.23s-7.51,43.62-65.94,87.54c-6.29,4.74-13.17,9.47-20.7,14.14q-4.6,2.88-9.55,5.72c-44.51,25.57-109.34,48.94-203.6,61,0,0-193.28,29.81-305.48-113.4l-20.28-26.4c-102.39-160.08,37.53-288.5,37.53-288.5C242.49,112.57,300.83,78.5,343,61.88c7.06-2.77,13.66-5.06,19.78-6.94,27.4-8.46,45-8.81,49.54-8.74.85,0,1.69,0,2.52,0,8.66-.09,57.35.28,108.17,19.26,5.14,1.9,10.31,4,15.45,6.34,1.3.58,2.61,1.18,3.91,1.8.95.45,1.92.91,2.87,1.39,2.19,1.07,4.38,2.17,6.54,3.32C581.3,94,609.08,117.2,627.45,151.7A58.33,58.33,0,0,1,630.19,162,125.48,125.48,0,0,1,632,177.16q.21,3.27.29,7c.25,12.55-.84,28.79-4.88,48.8,0,0-11.69,44.56,9.55,74.52a56,56,0,0,0,16,15.13l1.17.72s5.12,2.21,13.16,6.26l.22.11c2.85,1.45,6.07,3.12,9.55,5,6.24,3.38,13.32,7.47,20.7,12.17C732.07,368.61,772.57,403.34,763.78,442.23Z" fill="#fff" opacity="0.7"/><path d="M653,322.59H362.77V307.46H637A56,56,0,0,0,653,322.59Z" fill="#e6e6e6"/><path d="M667.37,329.57H362.77v-7H653l1.17.72S659.33,325.52,667.37,329.57Z" fill="#fff"/><path d="M632,177.16H362.77V162H630.19A125.48,125.48,0,0,1,632,177.16Z" fill="#e6e6e6"/><path d="M632.33,184.14H362.77v-7H632Q632.25,180.43,632.33,184.14Z" fill="#fff"/><path d="M362.77,54.94V523.86H343v-462C350.05,59.11,356.65,56.82,362.77,54.94Z" fill="#fff"/><path d="M697.84,346.87v182.9c-6.29,4.74-13.17,9.47-20.7,14.14V334.7C683.38,338.08,690.46,342.17,697.84,346.87Z" fill="#fff"/><path d="M677.14,334.7V543.91q-4.6,2.88-9.55,5.72V329.68C670.44,331.13,673.66,332.8,677.14,334.7Z" fill="#e6e6e6"/><path d="M610.43,205.08l-119.5.92-8.92.07,56.44-74.29v-60c1.3.58,2.61,1.18,3.91,1.8.95.45,1.92.91,2.87,1.39,2.19,1.07,4.38,2.17,6.54,3.32v52.3Z" fill="#f25d00"/><path d="M568.12,179.23S560.21,192.2,529,194l-38,12-8.92.07,56.44-74.29v-60c1.3.58,2.61,1.18,3.91,1.8.95.45,1.92.91,2.87,1.39v56.49S578,165,568.12,179.23Z" opacity="0.2"/><path d="M611.75,208a4.37,4.37,0,0,1-1.32,2.92c-6,6.63-32.33,11.62-63.84,11.62-36,0-65.15-6.51-65.15-14.54,0-5.82,15.35-10.86,37.51-13.17a265.1,265.1,0,0,1,27.64-1.37c8.55,0,16.72.37,24.2,1C594.79,196.63,611.75,201.87,611.75,208Z" fill="#fff"/><path d="M611.75,208a4.37,4.37,0,0,1-1.32,2.92c-38.54-15.11-65-14-65-14-29.09,0-64,11.05-64,11.05,0-5.82,15.35-10.86,37.51-13.17a265.1,265.1,0,0,1,27.64-1.37c8.55,0,16.72.37,24.2,1C594.79,196.63,611.75,201.87,611.75,208Z" fill="#ccc"/><path d="M570.79,194.48a26.26,26.26,0,0,1-51.84.34,265.1,265.1,0,0,1,27.64-1.37C555.14,193.45,563.31,193.82,570.79,194.48Z" fill="#390080"/><path d="M542.36,73.61H362.77V65.47H523C529.44,67.86,535.93,70.56,542.36,73.61Z" fill="#fff"/><path d="M523,65.47H362.77V54.94c27.4-8.46,45-8.81,49.54-8.74.85,0,1.69,0,2.52,0C423.49,46.12,472.18,46.49,523,65.47Z" fill="#e6e6e6"/><rect x="374.24" y="525.06" width="84.33" height="23.48" fill="#666"/><polygon points="374.24 548.55 399.86 573.38 490.63 573.38 458.57 548.55 374.24 548.55" fill="gray"/><rect x="189.57" y="232.58" width="440.87" height="296.76" rx="23.93" fill="gray"/><rect x="203.44" y="245.39" width="410.98" height="248.72" rx="13.66" fill="#ebebeb"/><circle cx="425.48" cy="511.19" r="7.47" fill="#666"/><circle cx="456.44" cy="511.19" r="5.34" fill="#666"/><circle cx="394.52" cy="511.19" r="5.34" fill="#666"/><path d="M400.88,313.28a26.73,26.73,0,0,1-11.58,6c-14,3.22-28.8-5.62-38.31-21.16a69.1,69.1,0,0,1-8.31-20.61c-6.33-27.53,4.27-53.49,23.68-58s40.3,14.23,46.64,41.77C417.92,282.71,412.61,303.15,400.88,313.28Z" fill="#f9b499"/><path d="M346.92,284.52c-4.59,4.12-13.65,1.5-20.26-5.83-5.45-6.07-7.51-13.48-5.46-18.2a7.27,7.27,0,0,1,1.82-2.56c4.59-4.12,13.66-1.51,20.25,5.84a25.06,25.06,0,0,1,2.17,2.74C350.18,273.28,351,280.9,346.92,284.52Z" fill="#f9b499"/><path d="M416.94,249.66s-12.81-1.07-19.21-10.68c0,0-17.83,26.22-33.74,1.73a.17.17,0,0,0-.31.09c.2,2.09-.13,7.79-9.72,7.79,0,0,10.74,18.75-8.51,17.92h0a25.06,25.06,0,0,0-2.17-2.74c-6.59-7.35-15.66-10-20.25-5.84a7.27,7.27,0,0,0-1.82,2.56s-10.34-9.38,0-25.59l91.47-45s19.21-4.27,14.94,19.21c0,0,14.95-2.13,17.08,10.68C444.69,219.77,449,249.66,416.94,249.66Z" fill="#390080"/><path d="M444.88,204.2a22.35,22.35,0,0,0-16.57,5.7L427,208.26c2.15-1.81,3.49-4.64,4.39-7.31A35.49,35.49,0,0,0,433,192a36.06,36.06,0,0,1-.58,9.22c-.69,3.16-1.76,6.29-4.09,8.7l-1.36-1.65a23.45,23.45,0,0,1,18-4.08Z" fill="#390080"/><path d="M370,239c11.24,11.3,20.71,3.72,26.94-7.89l.65-1.15,1,.92c13.4,11.91,28.86,13.84,40.82-1.11-10.68,17.07-28.73,15.17-42.28,2.59l1.64-.23c-6.59,12.16-18.21,20-28.75,6.87Z" opacity="0.2"/><path d="M326.36,340.06s-17.83,11.23-30.05,13.72a6.86,6.86,0,0,0-5.29,5.41c-4.73,23.78-22.81,125.68,14.9,128.51l25.62-4.27,2.67,10.68H463.83V369.75s-3.12-27.22-41.55-40Z" fill="#f25d00"/><path d="M335,372.52c-.23-.1,16.85-11.85,27.53-5.44L392.39,382,370,365.37a18.62,18.62,0,0,0-6-3.63,20.55,20.55,0,0,0-20.5,3.65Z" opacity="0.2"/><path d="M292.9,355.65c6.28-.6,18.05,1.49,20.42,8.23-2.61-2.77-6.22-3.69-9.68-4.89s-7.11-2.05-10.74-3.34Z" opacity="0.2"/><path d="M323,373.48a580.22,580.22,0,0,1,20.69,68.39A582.11,582.11,0,0,1,323,373.48Z" opacity="0.2"/><path d="M385.37,494.11,335,493l10.45-48-19.06-60.35s13.54,42.55,43,40.24l54.26-12-1.33,9.69-51.11,48.64S351.67,485.57,385.37,494.11Z" opacity="0.2"/><path d="M614.42,259.05V480.44a13.67,13.67,0,0,1-13.66,13.67h-9l1.19-.29a20.76,20.76,0,0,0,15.25-20.19V269.39c-.9-21.88-16.44-24-16.44-24h9A13.66,13.66,0,0,1,614.42,259.05Z" opacity="0.05"/><path d="M279.21,330.28l-.19,0-61-14.44,43-8.8h67.73ZM223,315.88l56.09,13.27L324,308.07h-62.9Z" fill="gray"/><path d="M220.69,316.35l-.34-1c2.33-.85,29.22-32.92,46.73-54.27l.33-.4,59.28,46.46L326,308l-58.45-45.82C261.76,269.23,223.88,315.28,220.69,316.35Z" fill="gray"/><path d="M278.62,329.81l-11.08-64.94-6,42.74-1.06-.15L267,261.29l.52-.07a.6.6,0,0,1,.6.5l11.58,67.91ZM268,261.88h0Z" fill="gray"/><rect x="280.21" y="324.81" width="50.45" height="1.07" transform="translate(-108.19 157.86) rotate(-24.76)" fill="gray"/><polygon points="287.58 338.75 281.16 336.19 284.1 330.54 285.05 331.03 282.65 335.64 287.97 337.76 287.58 338.75" fill="gray"/><polygon points="326.14 320.36 325.2 319.86 327.59 315.26 322.27 313.13 322.67 312.14 329.08 314.7 326.14 320.36" fill="gray"/><rect x="300.7" y="252.09" width="1.07" height="54.13" transform="translate(-104.58 342.33) rotate(-51.67)" fill="gray"/><polygon points="279.87 268.7 279.1 261.23 285.82 261.19 285.82 262.26 280.28 262.29 280.93 268.6 279.87 268.7" fill="gray"/><polygon points="316.15 296.63 316.14 295.56 321.68 295.52 321.04 289.22 322.1 289.11 322.87 296.58 316.15 296.63" fill="gray"/><rect x="210.23" y="283.58" width="54.13" height="1.07" transform="translate(-131.8 255.85) rotate(-45.75)" fill="gray"/><polygon points="224.69 304.29 217.18 304.29 217.84 297.6 218.9 297.7 218.36 303.22 224.69 303.22 224.69 304.29" fill="gray"/><polygon points="256.21 271.08 255.14 270.98 255.68 265.46 249.35 265.46 249.35 264.39 256.86 264.4 256.21 271.08" fill="gray"/><path d="M269.6,284.12c-.5-51.26-.07-51.7.14-51.92l.39-.16v.54l.49.18c-.32,1.4-.15,31.48,0,51.35Z" fill="#390080"/><circle cx="269.63" cy="288.09" r="4.27" fill="#f25d00"/><polygon points="552.95 304.29 442.02 304.29 442.02 261.76 443.09 261.76 443.09 303.22 552.95 303.22 552.95 304.29" fill="#390080"/><polygon points="436.63 268.35 435.86 267.61 442.55 260.63 449.34 267.43 448.59 268.18 442.57 262.16 436.63 268.35" fill="#390080"/><polygon points="547.68 310.92 546.93 310.17 552.95 304.15 546.76 298.21 547.5 297.44 554.48 304.13 547.68 310.92" fill="#390080"/><path d="M462.31,304.29h-8.54v-36h8.54Zm-7.48-1.07h6.41V269.4h-6.41Z" fill="#390080"/><path d="M476.18,304.29h-8.54V287.55h8.54Zm-7.47-1.07h6.41v-14.6h-6.41Z" fill="#390080"/><path d="M491.13,304.29h-8.54V276.88h8.54Zm-7.47-1.07h6.4V277.94h-6.4Z" fill="#390080"/><rect x="498.07" y="253.93" width="7.47" height="49.83" fill="#390080"/><rect x="513.01" y="261.4" width="7.47" height="42.36" fill="#390080"/><rect x="527.96" y="273.14" width="7.47" height="30.62" fill="#390080"/><path d="M408.93,335l-16.54,47c-11.74-23.48-44.84-44.83-44.84-44.83L351,298.1c9.51,15.54,24.3,24.38,38.31,21.16a26.73,26.73,0,0,0,11.58-6Z" fill="#f9b499"/><path d="M408.93,335l-3.07,8.75C363.81,335.44,351,298.1,351,298.1c9.51,15.54,24.3,24.38,38.31,21.16a26.73,26.73,0,0,0,11.58-6Z" fill="#f7a48b"/><path d="M349.52,310.51l-21.88,27.22a5.77,5.77,0,0,0-1.06,5.2L335,372.52,347.55,362s10.68-5.77,22.42,3.41L392.39,382s-7.47-19.21-44.84-44.83Z" fill="#f25d00"/><path d="M392.39,382s12.81-33.09,36.29-25.62l-6.4-26.68-19.85-17.87-1.55,1.43L408.93,335S391.32,382,392.39,382Z" fill="#f25d00"/><g opacity="0.3"><path d="M349.52,310.51l-21.88,27.22a5.77,5.77,0,0,0-1.06,5.2L335,372.52,347.55,362s10.68-5.77,22.42,3.41L392.39,382s-7.47-19.21-44.84-44.83Z" fill="#fff"/><path d="M392.39,382s12.81-33.09,36.29-25.62l-6.4-26.68-19.85-17.87-1.55,1.43L408.93,335S391.32,382,392.39,382Z" fill="#fff"/></g><rect x="421.59" y="341.54" width="184.75" height="121.49" fill="#fff"/><path d="M607.41,464.09H420.52V340.47H607.41ZM422.66,462H605.27V342.6H422.66Z" fill="#390080"/><path d="M593.89,456.74H434v-.27a6.09,6.09,0,0,0-6.09-6.09h-.21V354.09h.17A6.09,6.09,0,0,0,434,348v-.17H593.89V348a6.09,6.09,0,0,0,6.09,6.09h.17v96.27H600a6.1,6.1,0,0,0-6.09,6.1Zm-159.51-.34H593.55a6.45,6.45,0,0,1,6.28-6.37V354.44a6.46,6.46,0,0,1-6.28-6.27H434.38a6.46,6.46,0,0,1-6.28,6.27V450A6.45,6.45,0,0,1,434.38,456.4Z" fill="#f25d00"/><path d="M464.81,367.52a4.76,4.76,0,0,1,4.78-4.69,4.88,4.88,0,0,1,3,1,.78.78,0,0,1,.13,1,.77.77,0,0,1-1,.15,3.28,3.28,0,0,0-2.1-.72,3.44,3.44,0,0,0-2.35.94,3.27,3.27,0,0,0-.95,2.27,3.16,3.16,0,0,0,.95,2.26,3.49,3.49,0,0,0,2.35.94,3.28,3.28,0,0,0,2.1-.72.8.8,0,0,1,1,.14.78.78,0,0,1-.13,1.05,4.88,4.88,0,0,1-3,1A4.74,4.74,0,0,1,464.81,367.52Z" fill="#f25d00"/><path d="M475.26,371.49V363.8a.68.68,0,0,1,.63-.72h4.35a.72.72,0,0,1,.68.72.74.74,0,0,1-.68.73H476.7v2.38h3a.73.73,0,0,1,.72.73.72.72,0,0,1-.72.72h-3v2.4h3.54a.72.72,0,0,1,0,1.44H476a.7.7,0,0,1-.71-.7Z" fill="#f25d00"/><path d="M489.28,371.13a.71.71,0,0,1-.45.9h0a.92.92,0,0,1-.29,0h0a.86.86,0,0,1-.51-.14,1.3,1.3,0,0,1-.42-.45,3.67,3.67,0,0,1-.27-1.57,1,1,0,0,0-.16-.56,1.29,1.29,0,0,0-.39-.38,2.63,2.63,0,0,0-.73-.31h-1.53v2.83a.73.73,0,0,1-.73.68.72.72,0,0,1-.72-.68V363.8a.69.69,0,0,1,.63-.72h2.41a2.78,2.78,0,0,1,2.79,2.78v0a2.71,2.71,0,0,1-1,2.13,2.14,2.14,0,0,1,.46.49,2.49,2.49,0,0,1,.43,1.4,2.83,2.83,0,0,0,.05.77A.68.68,0,0,1,489.28,371.13Zm-1.82-5.24a1.36,1.36,0,0,0-1.36-1.36h-1.6v2.71h1.6a1.36,1.36,0,0,0,1.36-1.35Z" fill="#f25d00"/><path d="M496.7,364.53h-2.07v7a.68.68,0,0,1-.68.68h0a.72.72,0,0,1-.72-.68v-7h-2a.73.73,0,0,1-.72-.73h0a.69.69,0,0,1,.64-.72h5.64a.72.72,0,0,1,.72.71h0a.73.73,0,0,1-.73.73Z" fill="#f25d00"/><path d="M499.66,363.8a.69.69,0,0,1,.63-.72h.09a.73.73,0,0,1,.73.72h0v7.69a.73.73,0,0,1-.73.68.68.68,0,0,1-.72-.64V363.8Z" fill="#f25d00"/><path d="M503.56,371.49V363.8a.72.72,0,0,1,.7-.72h4.28a.73.73,0,0,1,.72.73.72.72,0,0,1-.72.72H505v2.38h3a.74.74,0,0,1,.73.73.73.73,0,0,1-.73.72h-3v3.13a.74.74,0,0,1-.73.68A.72.72,0,0,1,503.56,371.49Z" fill="#f25d00"/><path d="M511.52,363.8a.69.69,0,0,1,.64-.72h.08a.73.73,0,0,1,.73.72v7.69a.74.74,0,0,1-.73.68.68.68,0,0,1-.72-.64V363.8Z" fill="#f25d00"/><path d="M515,367.52a4.77,4.77,0,0,1,4.78-4.69,4.88,4.88,0,0,1,3,1,.77.77,0,0,1,.13,1,.76.76,0,0,1-1,.15,3.28,3.28,0,0,0-2.1-.72,3.41,3.41,0,0,0-2.34,1,3.21,3.21,0,0,0-1,2.26,3.18,3.18,0,0,0,1,2.27,3.44,3.44,0,0,0,2.37.88,3.23,3.23,0,0,0,2.1-.72.79.79,0,0,1,1,.15.77.77,0,0,1-.13,1,4.82,4.82,0,0,1-3,1A4.74,4.74,0,0,1,515,367.52Z" fill="#f25d00"/><path d="M529.91,370.06h-3.17l-.64,1.69a.73.73,0,0,1-.67.45.68.68,0,0,1-.75-.6.67.67,0,0,1,.07-.37l2.88-7.68a.74.74,0,0,1,.68-.45.7.7,0,0,1,.68.45l2.87,7.68a.74.74,0,0,1-.42.94.77.77,0,0,1-.92-.42Zm-.54-1.44-1-2.8-1.07,2.8Z" fill="#f25d00"/><path d="M537.94,364.53h-2.07v7a.72.72,0,0,1-.78.65.74.74,0,0,1-.65-.65v-7h-2.06a.73.73,0,0,1-.72-.73.69.69,0,0,1,.63-.72h5.65a.71.71,0,0,1,.72.71h0A.73.73,0,0,1,537.94,364.53Z" fill="#f25d00"/><path d="M540.9,363.8a.69.69,0,0,1,.64-.72h.08a.73.73,0,0,1,.73.72h0v7.69a.72.72,0,0,1-.73.68.69.69,0,0,1-.72-.64V363.8Z" fill="#f25d00"/><path d="M552,364.22a4.77,4.77,0,0,1,0,6.59,4.26,4.26,0,0,1-3.12,1.36,4.43,4.43,0,0,1-3.19-1.36,4.85,4.85,0,0,1,0-6.59,4.35,4.35,0,0,1,3.19-1.39A4.22,4.22,0,0,1,552,364.22Zm-.17,3.3a3.36,3.36,0,0,0-.89-2.28,2.8,2.8,0,0,0-4-.21,2,2,0,0,0-.2.21,3.34,3.34,0,0,0,0,4.54,2.77,2.77,0,0,0,3.92.24,2.72,2.72,0,0,0,.24-.24A3.33,3.33,0,0,0,551.81,367.52Z" fill="#f25d00"/><path d="M557,371.49a.71.71,0,0,1-1.42,0v-7.57a.65.65,0,0,1,.28-.59.71.71,0,0,1,1,.15L561,369.3v-5.38a.71.71,0,0,1,.68-.67.72.72,0,0,1,.72.67v7.58a.72.72,0,0,1-.72.67.66.66,0,0,1-.54-.25l-.06-.08-4.17-5.79Z" fill="#f25d00"/><path d="M489.47,382.08q6.12-.09,12.25-.13h24.5q6.09,0,12.24.13-6.09.1-12.24.13h-24.5Q495.6,382.21,489.47,382.08Z" fill="#390080"/><polygon points="475.85 385.9 485.38 385.81 494.91 385.78 513.97 385.73 533.02 385.78 542.55 385.81 552.09 385.9 542.55 385.98 533.02 386 513.97 386.07 494.91 386 485.38 385.98 475.85 385.9" fill="#390080"/><path d="M530.89,432.87q6.21-.11,12.42-.13l12.42,0,12.43,0q6.21,0,12.42.13c-4.13.06-8.28.1-12.42.12l-12.43,0L543.31,433Q537.1,433,530.89,432.87Z" fill="#390080"/><path d="M447.37,432.87c4.14-.07,8.29-.11,12.42-.13l12.43,0,12.42,0q6.21,0,12.43.13-6.24.11-12.47.1l-12.42,0-12.41,0Q453.56,433,447.37,432.87Z" fill="#390080"/><polygon points="559.53 404.72 548.14 404.81 536.75 404.83 513.97 404.89 491.19 404.83 479.79 404.81 468.4 404.72 479.79 404.64 491.19 404.61 513.97 404.55 536.75 404.61 548.14 404.64 559.53 404.72" fill="#390080"/><polygon points="571.55 400.9 557.16 400.99 542.76 401.02 513.97 401.07 485.17 401.02 470.77 400.99 456.38 400.9 470.77 400.82 485.17 400.8 513.97 400.74 542.76 400.8 557.16 400.82 571.55 400.9" fill="#390080"/><polygon points="567.92 408.54 554.43 408.62 540.94 408.64 513.97 408.7 486.99 408.64 473.5 408.62 460.01 408.54 473.5 408.45 486.99 408.42 513.97 408.37 540.94 408.42 554.43 408.45 567.92 408.54" fill="#390080"/><polygon points="544.61 412.35 536.95 412.43 529.29 412.45 513.97 412.51 498.64 412.45 490.98 412.43 483.32 412.35 490.98 412.26 498.64 412.23 513.97 412.18 529.29 412.23 536.95 412.26 544.61 412.35" fill="#390080"/><path d="M539.81,430.33c.83-.57,1.68-1.12,2.57-1.62a12.2,12.2,0,0,1,2.78-1.25,2.33,2.33,0,0,1,.38-.08.44.44,0,0,1,.43.14,1.49,1.49,0,0,1,.17.8,9.66,9.66,0,0,1-.15,1.52c-.18,1-.43,2-.68,3a46.7,46.7,0,0,1-2,5.75,8.84,8.84,0,0,1-.72,1.36,1.64,1.64,0,0,1-.28.31.42.42,0,0,1-.26.12.28.28,0,0,1-.18-.06l-.09-.1a1.43,1.43,0,0,1-.22-.81,9.81,9.81,0,0,1,.54-3,17.26,17.26,0,0,1,1.14-2.83A8.6,8.6,0,0,1,545,431a2.86,2.86,0,0,1,1.4-.67,1.8,1.8,0,0,1,.8.06,1.34,1.34,0,0,1,.56.57,2.55,2.55,0,0,0,.42.61.62.62,0,0,0,.61.21,3.88,3.88,0,0,0,1.27-.75c.21-.15.4-.31.61-.45a2.39,2.39,0,0,1,.34-.21.4.4,0,0,1,.42,0c.2.25.15.52.25.74a.44.44,0,0,0,.52.33,4.48,4.48,0,0,0,1.11-1c.34-.37.68-.75,1-1.13.68-.77,1.32-1.54,2-2.3.34-.38.68-.75,1.05-1.11.19-.18.38-.34.58-.5a1.75,1.75,0,0,1,.35-.2.59.59,0,0,1,.22-.05.26.26,0,0,1,.23.12,1.33,1.33,0,0,1,.11.81,6.66,6.66,0,0,1-.12.76,17.25,17.25,0,0,1-1.62,4.29,3.24,3.24,0,0,1-.48.64.57.57,0,0,1-.45.17,1.14,1.14,0,0,1-.4-.11,1.87,1.87,0,0,1-1-1.24.67.67,0,0,1,.06-.48A.5.5,0,0,1,555,430a.47.47,0,0,1,.26-.05,2.74,2.74,0,0,1,.79.18c.48.17,1,.38,1.42.59l1.39.59.67.25.33.08a.64.64,0,0,0,.28-.06c.39-.19.64-.68,1-1a1.19,1.19,0,0,1,.78-.4.4.4,0,0,1,.31.1.36.36,0,0,1,.1.31,2,2,0,0,1-.07.42c-.07.22-.1.51,0,.52a2.49,2.49,0,0,0,.57,0,3.68,3.68,0,0,0,1.28-.68c.2-.14.41-.29.64-.43a1.22,1.22,0,0,1,.85-.2,3.05,3.05,0,0,1,1.3.94,3,3,0,0,0,.54.46c.09.07.18.08.2.06a1.75,1.75,0,0,0,.29-.18,11.58,11.58,0,0,0,1.14-1,12.71,12.71,0,0,0,2-2.25,2.63,2.63,0,0,0,.49-1.32c0-.45-.47-.67-1-.73a8,8,0,0,0-3,0,8.1,8.1,0,0,0-1.44.4,3.28,3.28,0,0,0-.67.35c-.19.14-.36.34-.3.52a.9.9,0,0,0,.48.44c.22.1.45.2.68.28a14,14,0,0,0,1.44.42,33,33,0,0,0,6,.58v0a31.53,31.53,0,0,1-6.06-.44c-.5-.11-1-.25-1.48-.41a7,7,0,0,1-.71-.28,1.08,1.08,0,0,1-.6-.57.74.74,0,0,1,.37-.74,2.8,2.8,0,0,1,.67-.39,7,7,0,0,1,1.48-.44,8.56,8.56,0,0,1,3.07-.08,2,2,0,0,1,.77.26.94.94,0,0,1,.44.74,2.72,2.72,0,0,1-.52,1.51,12.44,12.44,0,0,1-2,2.34,10.14,10.14,0,0,1-1.18,1,1.65,1.65,0,0,1-.36.22.6.6,0,0,1-.52-.07,3.79,3.79,0,0,1-.6-.53,3.07,3.07,0,0,0-1.12-.83c-.37-.06-.8.29-1.2.57a4.26,4.26,0,0,1-1.4.73,1.17,1.17,0,0,1-.9,0,.52.52,0,0,1-.17-.51,2,2,0,0,1,.08-.41,1.75,1.75,0,0,0,.06-.33v0s0,0,0,0a.93.93,0,0,0-.54.29c-.35.32-.58.82-1.12,1.1a.87.87,0,0,1-.45.09,2.71,2.71,0,0,1-.41-.09c-.25-.07-.48-.17-.72-.26l-1.4-.61c-.47-.21-.92-.42-1.39-.58a2.26,2.26,0,0,0-.68-.17c-.16,0-.25.13-.21.35a1.58,1.58,0,0,0,.84,1,1.19,1.19,0,0,0,.32.1.25.25,0,0,0,.23-.11,2.67,2.67,0,0,0,.43-.57,15,15,0,0,0,1.23-2.71,14.14,14.14,0,0,0,.41-1.45,6.21,6.21,0,0,0,.13-.73,1.21,1.21,0,0,0,0-.68c-.08-.13-.36,0-.55.17s-.38.31-.56.48c-.37.34-.71.72-1,1.09-.68.74-1.36,1.52-2,2.27-.34.38-.68.76-1,1.13a4.43,4.43,0,0,1-1.17,1,.56.56,0,0,1-.68-.39c-.1-.24-.09-.54-.22-.68s-.19,0-.3,0l-.31.2c-.2.14-.4.3-.6.46a4.22,4.22,0,0,1-1.32.79.8.8,0,0,1-.76-.24,4.53,4.53,0,0,1-.45-.63c-.14-.21-.27-.43-.48-.5a1.52,1.52,0,0,0-.67-.05,2.7,2.7,0,0,0-1.3.64,8.49,8.49,0,0,0-1.7,2.44,16.78,16.78,0,0,0-1.1,2.8,9.79,9.79,0,0,0-.49,2.94,1.21,1.21,0,0,0,.15.64l0,.05h0a.18.18,0,0,0,.07-.05,1.78,1.78,0,0,0,.22-.26,12.49,12.49,0,0,0,.68-1.31,45.84,45.84,0,0,0,2-5.69,30,30,0,0,0,.72-2.94,8.3,8.3,0,0,0,.17-1.49,1.21,1.21,0,0,0-.13-.67.21.21,0,0,0-.26-.08,2,2,0,0,0-.35.07,12.55,12.55,0,0,0-2.77,1.18c-.89.48-1.76,1-2.61,1.55Z" fill="#390080"/><path d="M484.5,430.33c-.83-.57-1.68-1.12-2.57-1.62a12.4,12.4,0,0,0-2.78-1.25,2.7,2.7,0,0,0-.39-.08.42.42,0,0,0-.42.14,1.49,1.49,0,0,0-.17.8,8.61,8.61,0,0,0,.15,1.52c.18,1,.43,2,.68,3a46.7,46.7,0,0,0,2,5.75,8.84,8.84,0,0,0,.72,1.36,1.64,1.64,0,0,0,.28.31.42.42,0,0,0,.26.12.28.28,0,0,0,.18-.06l.09-.1a1.52,1.52,0,0,0,.22-.81,10.44,10.44,0,0,0-.54-3,18.2,18.2,0,0,0-1.14-2.83,8.63,8.63,0,0,0-1.79-2.49,2.74,2.74,0,0,0-1.4-.67,1.75,1.75,0,0,0-.79.06,1.28,1.28,0,0,0-.56.57,3.3,3.3,0,0,1-.42.61.62.62,0,0,1-.61.21,4,4,0,0,1-1.28-.75c-.2-.15-.4-.31-.61-.45a3,3,0,0,0-.33-.21.4.4,0,0,0-.42,0c-.2.25-.15.52-.25.74a.44.44,0,0,1-.52.33,4.71,4.71,0,0,1-1.12-1c-.34-.37-.67-.75-1-1.13-.68-.77-1.32-1.54-2-2.3-.34-.38-.68-.75-1.05-1.11a7.08,7.08,0,0,0-.59-.5,1.45,1.45,0,0,0-.34-.2.59.59,0,0,0-.22-.05.3.3,0,0,0-.24.12,1.34,1.34,0,0,0-.1.81,5,5,0,0,0,.12.76,17.25,17.25,0,0,0,1.62,4.29,3.24,3.24,0,0,0,.48.64.56.56,0,0,0,.44.17,1.13,1.13,0,0,0,.41-.11,1.89,1.89,0,0,0,1-1.24.8.8,0,0,0-.06-.48.58.58,0,0,0-.19-.19.52.52,0,0,0-.27-.05,3,3,0,0,0-.78.18c-.49.17-.95.38-1.42.59l-1.39.59c-.23.09-.46.18-.68.25a1.87,1.87,0,0,1-.34.08.67.67,0,0,1-.28-.06c-.38-.19-.63-.68-1-1a1.23,1.23,0,0,0-.77-.4.38.38,0,0,0-.31.1.4.4,0,0,0-.11.31,2,2,0,0,0,.07.42c.07.22.1.51,0,.52a2.55,2.55,0,0,1-.58,0,3.68,3.68,0,0,1-1.28-.68,5.76,5.76,0,0,0-.68-.43,1.18,1.18,0,0,0-.84-.2,3.18,3.18,0,0,0-1.3.94,3,3,0,0,1-.54.46c-.09.07-.17.08-.19.06a1.83,1.83,0,0,1-.3-.18,10.35,10.35,0,0,1-1.14-1,13.58,13.58,0,0,1-2-2.25,2.59,2.59,0,0,1-.46-1.31c0-.45.46-.68.95-.74a8.47,8.47,0,0,1,3,0,7.8,7.8,0,0,1,1.43.41,3.36,3.36,0,0,1,.68.35c.18.14.35.33.3.52a.92.92,0,0,1-.49.44c-.22.1-.45.19-.68.27a14.23,14.23,0,0,1-1.45.43,32.83,32.83,0,0,1-6,.58v0a31.84,31.84,0,0,0,6.09-.44c.5-.11,1-.25,1.48-.41.23-.09.48-.17.71-.28a1.08,1.08,0,0,0,.6-.57.74.74,0,0,0-.36-.74,3.07,3.07,0,0,0-.68-.39,7,7,0,0,0-1.48-.44,8.34,8.34,0,0,0-3.07-.09,2.15,2.15,0,0,0-.77.27.92.92,0,0,0-.44.74,2.83,2.83,0,0,0,.52,1.51,12.24,12.24,0,0,0,2,2.34,11.24,11.24,0,0,0,1.18,1,2.56,2.56,0,0,0,.35.22.57.57,0,0,0,.52-.08,3.36,3.36,0,0,0,.61-.52,3,3,0,0,1,1.12-.84c.37-.05.8.29,1.2.58a4.36,4.36,0,0,0,1.4.73,1.13,1.13,0,0,0,.9,0,.52.52,0,0,0,.17-.5,1.86,1.86,0,0,0-.08-.41,1.91,1.91,0,0,1-.06-.33v0s0,0,.05,0a.88.88,0,0,1,.54.29c.34.32.58.81,1.11,1.1a.81.81,0,0,0,.46.08,2,2,0,0,0,.41-.08c.25-.08.48-.17.72-.27.47-.19.93-.4,1.4-.61s.92-.41,1.39-.57a2.62,2.62,0,0,1,.68-.18c.16,0,.25.14.21.35a1.65,1.65,0,0,1-.84,1,.9.9,0,0,1-.32.09.26.26,0,0,1-.23-.1,2.37,2.37,0,0,1-.43-.57,15,15,0,0,1-1.23-2.71c-.16-.48-.3-1-.42-1.45a4.57,4.57,0,0,1-.12-.74,1.18,1.18,0,0,1,.05-.67c.08-.13.36,0,.54.17a4.26,4.26,0,0,1,.57.48c.37.34.68.71,1.05,1.09.68.74,1.36,1.51,2,2.27.34.38.68.76,1,1.13a4.28,4.28,0,0,0,1.17,1,.56.56,0,0,0,.67-.39c.1-.25.09-.54.22-.68s.19,0,.29,0a2.14,2.14,0,0,1,.32.2c.2.14.4.3.6.46a4.11,4.11,0,0,0,1.32.78.77.77,0,0,0,.76-.23,4.53,4.53,0,0,0,.45-.63c.14-.21.27-.44.48-.51a1.52,1.52,0,0,1,.67,0,2.73,2.73,0,0,1,1.3.63,8.48,8.48,0,0,1,1.7,2.45,16.78,16.78,0,0,1,1.1,2.8,9.79,9.79,0,0,1,.49,2.94,1.15,1.15,0,0,1-.15.63l0,.05h0a.15.15,0,0,1-.07-.05,1.27,1.27,0,0,1-.21-.25,10.27,10.27,0,0,1-.68-1.32,45.12,45.12,0,0,1-2-5.68c-.28-1-.54-1.95-.72-2.94a8.3,8.3,0,0,1-.17-1.49,1.34,1.34,0,0,1,.13-.68c.06-.08.12-.1.26-.07a1.53,1.53,0,0,1,.36.07,13.46,13.46,0,0,1,2.77,1.17c.88.48,1.76,1,2.6,1.55Z" fill="#390080"/><path d="M514.3,419.58h0a.63.63,0,0,0,.81.36.64.64,0,0,0,.3-.24h0a.63.63,0,0,1,.87-.18.66.66,0,0,1,.27.42h0a.63.63,0,0,0,.73.51.68.68,0,0,0,.33-.16h0a.61.61,0,0,1,.88,0,.62.62,0,0,1,.18.47h0a.63.63,0,0,0,.6.65.6.6,0,0,0,.37-.09h0a.62.62,0,0,1,.86.18.66.66,0,0,1,.08.49h0a.63.63,0,0,0,.45.77.7.7,0,0,0,.38,0h0a.63.63,0,0,1,.81.37.62.62,0,0,1,0,.5h0a.64.64,0,0,0,.28.85.61.61,0,0,0,.4.05h0a.64.64,0,0,1,.71.54.65.65,0,0,1-.13.47h0a.62.62,0,0,0,.11.88.64.64,0,0,0,.34.14h0a.63.63,0,0,1,.59.67.68.68,0,0,1-.23.44h0a.62.62,0,0,0-.08.88.66.66,0,0,0,.31.21h0a.62.62,0,0,1,.12,1.16h0a.63.63,0,0,0-.25.85.57.57,0,0,0,.25.26h0a.63.63,0,0,1,.27.85.61.61,0,0,1-.39.31h0a.62.62,0,0,0-.43.77.6.6,0,0,0,.2.32h0a.63.63,0,0,1-.36,1.11h0a.64.64,0,0,0-.58.68.62.62,0,0,0,.13.34h0a.63.63,0,0,1-.58,1h0a.64.64,0,0,0-.74.5.68.68,0,0,0,.06.4h0a.63.63,0,0,1-.29.84.69.69,0,0,1-.49,0h0a.63.63,0,0,0-.83.74h0a.62.62,0,0,1-.48.75.62.62,0,0,1-.46-.07h0a.63.63,0,0,0-.87.19.65.65,0,0,0-.1.36h0a.62.62,0,0,1-.59.66.63.63,0,0,1-.47-.18h0a.63.63,0,0,0-.89,0,.62.62,0,0,0-.17.33h0a.64.64,0,0,1-.73.52.62.62,0,0,1-.41-.27h0a.64.64,0,0,0-.88-.18.6.6,0,0,0-.23.29h0a.63.63,0,0,1-1.17,0h0a.62.62,0,0,0-.81-.35.64.64,0,0,0-.3.24h0a.64.64,0,0,1-.87.17.66.66,0,0,1-.27-.42h0a.63.63,0,0,0-.73-.51.62.62,0,0,0-.33.17h0a.63.63,0,0,1-.88,0,.66.66,0,0,1-.18-.48h0a.63.63,0,0,0-.61-.65.6.6,0,0,0-.36.1h0a.63.63,0,0,1-.86-.21.6.6,0,0,1-.08-.47h0a.63.63,0,0,0-.83-.74h0a.64.64,0,0,1-.81-.39.67.67,0,0,1,0-.48h0a.64.64,0,0,0-.28-.85.62.62,0,0,0-.4-.05h0a.64.64,0,0,1-.71-.54.65.65,0,0,1,.13-.47h0a.64.64,0,0,0-.45-1h0a.63.63,0,0,1-.58-.68.6.6,0,0,1,.22-.43h0a.64.64,0,0,0,.09-.88.75.75,0,0,0-.32-.21h0a.62.62,0,0,1-.12-1.16h0a.64.64,0,0,0,0-1.11h0a.63.63,0,0,1-.27-.85.61.61,0,0,1,.39-.31h0a.63.63,0,0,0,.43-.78.58.58,0,0,0-.2-.31h0a.63.63,0,0,1-.08-.89.63.63,0,0,1,.44-.22h0a.64.64,0,0,0,.58-.68.62.62,0,0,0-.13-.34h0a.63.63,0,0,1,.58-1h0a.63.63,0,0,0,.73-.5.61.61,0,0,0-.05-.4h0a.63.63,0,0,1,.78-.87h0a.63.63,0,0,0,.81-.37.7.7,0,0,0,0-.38h0a.62.62,0,0,1,.45-.75.57.57,0,0,1,.49.08h0a.64.64,0,0,0,1-.56h0a.61.61,0,0,1,.59-.65.6.6,0,0,1,.47.18h0a.63.63,0,0,0,.89,0,.62.62,0,0,0,.17-.33h0a.62.62,0,0,1,.72-.51.58.58,0,0,1,.42.27h0a.63.63,0,0,0,1.11-.12h0a.63.63,0,0,1,.81-.36A.7.7,0,0,1,514.3,419.58Z" fill="#f25d00"/><circle cx="513.71" cy="430.48" r="9.75" fill="#fff"/><path d="M513.71,439.58a9.13,9.13,0,1,1,9.13-9.12h0A9.13,9.13,0,0,1,513.71,439.58Zm0-17.91a8.81,8.81,0,1,0,8.81,8.81,8.81,8.81,0,0,0-8.81-8.81Z" fill="#f25d00"/><rect x="498.92" y="427.66" width="29.6" height="5.61" fill="#fff"/><path d="M502.81,430.52a1.63,1.63,0,0,1,1.63-1.61,1.69,1.69,0,0,1,1,.35.27.27,0,0,1,0,.36.26.26,0,0,1-.35,0,1.1,1.1,0,0,0-.72-.24,1.14,1.14,0,0,0-.8.32,1.06,1.06,0,0,0-.32.77,1,1,0,0,0,.32.77,1.2,1.2,0,0,0,.8.33,1.17,1.17,0,0,0,.72-.25.25.25,0,0,1,.35.05.26.26,0,0,1,0,.35,1.69,1.69,0,0,1-1,.35A1.63,1.63,0,0,1,502.81,430.52Z" fill="#f25d00"/><path d="M506.38,431.87v-2.62a.24.24,0,0,1,.24-.24h1.46a.25.25,0,0,1,.2.28.26.26,0,0,1-.2.21h-1.21v.81h1a.25.25,0,0,1,.2.29.26.26,0,0,1-.2.21h-1v.81h1.21a.25.25,0,0,1,0,.49h-1.46A.24.24,0,0,1,506.38,431.87Z" fill="#f25d00"/><path d="M511.16,431.75a.25.25,0,0,1-.16.31h-.09a.34.34,0,0,1-.17-.05.54.54,0,0,1-.15-.15,1.26,1.26,0,0,1-.09-.54.33.33,0,0,0-.06-.19.33.33,0,0,0-.13-.13.56.56,0,0,0-.24-.1h-.53v1a.26.26,0,0,1-.5,0v-2.61a.25.25,0,0,1,.25-.24h.8a.94.94,0,0,1,.94.94h0a.91.91,0,0,1-.34.73.46.46,0,0,1,.15.16.86.86,0,0,1,.15.49,1.13,1.13,0,0,0,0,.26A.23.23,0,0,1,511.16,431.75Zm-.62-1.79a.47.47,0,0,0-.46-.46h-.55v.91h.55A.46.46,0,0,0,510.54,430Z" fill="#f25d00"/><path d="M513.71,429.5H513v2.37a.23.23,0,0,1-.23.24h0a.24.24,0,0,1-.24-.24h0V429.5h-.68a.24.24,0,0,1-.24-.24h0a.22.22,0,0,1,.23-.24h1.88a.25.25,0,0,1,.25.24h0A.25.25,0,0,1,513.71,429.5Z" fill="#f25d00"/><path d="M514.7,429.25A.25.25,0,0,1,515,429h0a.25.25,0,0,1,.25.24v2.62a.25.25,0,0,1-.25.24h0a.24.24,0,0,1-.25-.23h0Z" fill="#f25d00"/><path d="M516,431.87v-2.62a.24.24,0,0,1,.24-.24h1.46a.25.25,0,0,1,0,.49h-1.21v.81h1a.25.25,0,0,1,0,.5h-1v1.06a.24.24,0,0,1-.25.24A.24.24,0,0,1,516,431.87Z" fill="#f25d00"/><path d="M518.75,429.25A.25.25,0,0,1,519,429a.25.25,0,0,1,.25.24v2.62a.25.25,0,0,1-.25.24h0a.24.24,0,0,1-.25-.23h0Z" fill="#f25d00"/><path d="M520.08,431.87v-2.62a.23.23,0,0,1,.23-.24h1.46a.25.25,0,0,1,.21.28.25.25,0,0,1-.21.21h-1.2v.81h1a.25.25,0,0,1,0,.5h-1v.81h1.2a.24.24,0,0,1,.24.24.24.24,0,0,1-.24.25h-1.45a.23.23,0,0,1-.24-.23Z" fill="#f25d00"/><path d="M522.71,431.87v-2.62A.25.25,0,0,1,523,429h.52a1.55,1.55,0,0,1,0,3.1H523A.25.25,0,0,1,522.71,431.87Zm.48-.25h.28a1.07,1.07,0,0,0,0-2.13h-.28Z" fill="#f25d00"/><path d="M396.66,406.57l-48.42,32.48a77.46,77.46,0,0,1-14.67,7.71c-12.22,4.85-35.68,15.21-37.25,23.86,0,0,9.6,29.89,26.68,26.69,0,0,16,6.71,50.18-34.54L410.26,421a10.26,10.26,0,0,1,5.8-3.28c3.87-.71,10.22-2.1,14.44-4.17a9.91,9.91,0,0,0,3.87-3.48l11.39-17.4s1.07-1.07-1.07-6.41c0,0,2.14-5.33-2.13-7.47,0,0,1.68-5.34-1.83-9.07,0,0,.76-4.81-2.44-5.87,0,0-1.07-6.41-6.41-5.34l-18.14,5.34a9.66,9.66,0,0,0-7.48,8.54Z" fill="#f9b499"/><path d="M408.93,379.51c2.92-3.51,6-6.88,9.1-10.21,6.7-2,13.42-3.93,20.26-5.42-6.13,2.23-14.22,4.92-19.61,6.22-3.17,3.21-6.39,6.38-9.75,9.41Z" fill="#f7a48b"/><path d="M415.87,390.56a18.74,18.74,0,0,1,7.47-12.41c5.7-3,11.47-5.86,17.39-8.4-2.74,1.69-5.55,3.25-8.35,4.82s-5.88,3.16-8.48,4.46c-4,2.66-6.56,7-8,11.53Z" fill="#f7a48b"/><path d="M425,397.58c1.11-4.66,2.82-9.61,6.62-12.78,3.58-2.13,7.22-4.16,11-6-1.68,1.24-3.4,2.4-5.14,3.54s-3.7,2.37-5.22,3.29c-3.52,3-5.4,7.73-7.25,11.93Z" fill="#f7a48b"/><path d="M431.35,403.91c1.92-7.23,6.71-14,13.34-17.62a54.3,54.3,0,0,0-13.34,17.62Z" fill="#f7a48b"/><polygon points="604.84 506.46 610.95 499.11 620.24 501.29 608.85 467.35 593.45 472.52 604.84 506.46" fill="#390080"/><polygon points="599.11 489.35 593.45 472.52 608.85 467.35 599.11 489.35" opacity="0.2"/><polygon points="606.86 468.02 617.83 500.72 618.17 500.8 607.14 467.93 606.86 468.02" fill="#fff"/><polygon points="595.16 471.94 606.19 504.82 606.42 504.55 595.45 471.85 595.16 471.94" fill="#fff"/><polygon points="575.99 506.4 585.15 503.68 591.67 510.65 602.26 471.6 586.59 467.35 575.99 506.4" fill="#390080"/><polygon points="600.23 471.06 589.98 508.85 590.22 509.1 600.51 471.13 600.23 471.06" fill="#fff"/><polygon points="588.33 467.83 578.03 505.79 578.36 505.7 588.62 467.9 588.33 467.83" fill="#fff"/><path d="M599.46,429.53h0a1.43,1.43,0,0,0,2.51.26h0a1.43,1.43,0,0,1,2.59.55h0a1.44,1.44,0,0,0,1.65,1.17,1.4,1.4,0,0,0,.75-.39h0a1.44,1.44,0,0,1,2.43,1.08h0a1.43,1.43,0,0,0,2.18,1.27h0a1.43,1.43,0,0,1,2,.44,1.4,1.4,0,0,1,.18,1.11h0a1.44,1.44,0,0,0,1,1.74,1.37,1.37,0,0,0,.85-.05h0a1.43,1.43,0,0,1,1.78,2h0a1.43,1.43,0,0,0,.67,1.91,1.5,1.5,0,0,0,.81.13h0a1.42,1.42,0,0,1,1.35,2.29h0a1.44,1.44,0,0,0,.24,2,1.5,1.5,0,0,0,.79.3h0a1.42,1.42,0,0,1,1.33,1.52,1.4,1.4,0,0,1-.51,1h0a1.45,1.45,0,0,0-.18,2,1.46,1.46,0,0,0,.71.46h0a1.43,1.43,0,0,1,1,1.76,1.51,1.51,0,0,1-.71.88h0a1.42,1.42,0,0,0,0,2.52h0a1.43,1.43,0,0,1-.28,2.64h0a1.43,1.43,0,0,0-.53,2.47h0a1.42,1.42,0,0,1,.2,2,1.4,1.4,0,0,1-1,.52h0a1.43,1.43,0,0,0-1,2.31h0a1.42,1.42,0,0,1-.22,2,1.44,1.44,0,0,1-1.13.29h0a1.43,1.43,0,0,0-1.61,1.22,1.41,1.41,0,0,0,.13.81h0a1.43,1.43,0,0,1-.66,1.91,1.45,1.45,0,0,1-1.12.06h0a1.42,1.42,0,0,0-1.83.84,1.37,1.37,0,0,0,0,.85h0a1.43,1.43,0,0,1-2.15,1.56h0a1.42,1.42,0,0,0-2,.45,1.39,1.39,0,0,0-.22.82h0a1.44,1.44,0,0,1-1.38,1.48,1.46,1.46,0,0,1-1-.41h0a1.42,1.42,0,0,0-2,0,1.46,1.46,0,0,0-.38.75h0a1.43,1.43,0,0,1-1.65,1.17,1.47,1.47,0,0,1-.94-.61h0a1.42,1.42,0,0,0-2-.39,1.35,1.35,0,0,0-.53.65h0a1.44,1.44,0,0,1-1.86.8,1.49,1.49,0,0,1-.8-.8h0a1.41,1.41,0,0,0-1.85-.79,1.37,1.37,0,0,0-.66.53h0a1.43,1.43,0,0,1-2.59-.56h0a1.43,1.43,0,0,0-1.65-1.16,1.38,1.38,0,0,0-.75.38h0a1.42,1.42,0,0,1-2,0,1.39,1.39,0,0,1-.41-1h0a1.43,1.43,0,0,0-2.19-1.27h0a1.43,1.43,0,0,1-2-.45,1.44,1.44,0,0,1-.18-1.11h0a1.43,1.43,0,0,0-1.87-1.69h0a1.43,1.43,0,0,1-1.83-.85,1.41,1.41,0,0,1,0-1.12h0a1.42,1.42,0,0,0-.67-1.9,1.41,1.41,0,0,0-.81-.13h0a1.42,1.42,0,0,1-1.35-2.3h0a1.43,1.43,0,0,0-1-2.31h0a1.43,1.43,0,0,1-1.34-1.5,1.4,1.4,0,0,1,.52-1h0a1.43,1.43,0,0,0-.53-2.47h0a1.43,1.43,0,0,1-1-1.76,1.46,1.46,0,0,1,.71-.88h0a1.42,1.42,0,0,0,0-2.52h0a1.44,1.44,0,0,1-.6-1.93,1.42,1.42,0,0,1,.88-.71h0a1.44,1.44,0,0,0,1-1.77,1.51,1.51,0,0,0-.46-.71h0a1.42,1.42,0,0,1,.82-2.52h0a1.43,1.43,0,0,0,1-2.31h0a1.43,1.43,0,0,1,.23-2,1.41,1.41,0,0,1,1.12-.28h0a1.43,1.43,0,0,0,1.48-2h0a1.43,1.43,0,0,1,1.78-2h0a1.42,1.42,0,0,0,1.87-1.69h0a1.43,1.43,0,0,1,1-1.73,1.4,1.4,0,0,1,1.11.18h0a1.45,1.45,0,0,0,2-.46,1.47,1.47,0,0,0,.21-.81h0a1.43,1.43,0,0,1,1.38-1.47,1.37,1.37,0,0,1,1,.41h0a1.43,1.43,0,0,0,2,0,1.47,1.47,0,0,0,.39-.75h0a1.43,1.43,0,0,1,1.65-1.17,1.47,1.47,0,0,1,.94.61h0a1.43,1.43,0,0,0,2.51-.26h0a1.43,1.43,0,0,1,1.86-.8A1.46,1.46,0,0,1,599.46,429.53Z" fill="#f25d00"/><circle cx="598.11" cy="454.23" r="22.13" fill="#fff"/><path d="M598.1,474.81a20.59,20.59,0,1,1,20.59-20.58A20.57,20.57,0,0,1,598.1,474.81Zm0-40.65a20.08,20.08,0,1,0,20.08,20.07h0A20.09,20.09,0,0,0,598.1,434.16Z" fill="#f25d00"/><polygon points="595.83 466.55 583.7 454.42 588.67 449.44 595.83 456.59 618.61 433.81 623.58 438.79 595.83 466.55" fill="#390080"/><polygon points="439.36 157.85 372.11 234.71 269.06 232.58 328.34 154.65 439.36 157.85" fill="#f25d00"/><path d="M586.62,384.65s-10.89-11.17-1.41-11.17c.26,0,9.45-1,15.53-1.67a9.17,9.17,0,0,1,9,4.55,37.76,37.76,0,0,1,4.69,18.74s-3.2,21.08-8.54,23.22c0,0-33.16,2.2-20.32-10.64,0,0-13.53-5.91-1.41-12.58,0,0-7.38.8-6.7-4.54C577.45,390.56,575.9,385.14,586.62,384.65Z" fill="#f9b499"/><path d="M600.73,386.29a46.07,46.07,0,0,1-14.11-1.64,46.31,46.31,0,0,1,14.11,1.64Z" fill="#f7a48b"/><path d="M599.32,395.11a52.46,52.46,0,0,1-15.17,0,52.46,52.46,0,0,1,15.17,0Z" fill="#f7a48b"/><path d="M585.56,407.68a43.21,43.21,0,0,1,13.76,0,43.5,43.5,0,0,1-13.76,0Z" fill="#f7a48b"/><line x1="585.86" y1="590.35" x2="596.03" y2="590.85" fill="none" stroke="red" stroke-miterlimit="10" stroke-width="0.25"/><polygon points="503.84 561.13 503.84 579.66 619.65 585.95 619.04 558.89 503.84 561.13" fill="#f25d00"/><polygon points="496.26 585.95 619.65 592 619.65 585.95 503.84 579.66 496.26 585.95" fill="#ccc"/><polygon points="496.26 585.95 497.69 601.58 619.04 610.29 619.65 592 496.26 585.95" fill="#b3b3b3"/><path d="M468.26,537.51l82.26,12.82,72.11-10-38.35-10-116,7.12S468.23,537.51,468.26,537.51Z" fill="#390080"/><polygon points="549.09 568.88 465.8 554.61 468.26 537.51 550.51 550.33 549.09 568.88" fill="#fff"/><path d="M545.44,556.58h-.11L469,545.32a.73.73,0,0,1-.6-.81.71.71,0,0,1,.81-.6l76.3,11.25a.71.71,0,0,1-.1,1.42Z" fill="#e6e6e6"/><path d="M544.81,562.46h-.14L469,548.29a.71.71,0,1,1,.26-1.4L544.94,561a.72.72,0,0,1-.13,1.42Z" fill="#e6e6e6"/><polygon points="463.43 504.64 497.69 530.34 612.92 523.48 580.5 501.79 463.43 504.64" fill="#5d6166"/><path d="M462,518.92s34.93,26.57,35,27.28c0,.56.73-15.86.73-15.86l-34.26-25.7Z" fill="#e6e6e6"/><g opacity="0.21"><path d="M494.84,533.91a.73.73,0,0,1-.44-.15l-30-22.84a.72.72,0,0,1,.87-1.14l30,22.85a.71.71,0,0,1,.13,1A.7.7,0,0,1,494.84,533.91Z"/></g><g opacity="0.21"><path d="M494.84,538.19a.73.73,0,0,1-.44-.15l-30-22.84a.71.71,0,1,1,.87-1.13l30,22.84a.72.72,0,0,1,.13,1A.7.7,0,0,1,494.84,538.19Z"/></g><g opacity="0.21"><path d="M493.41,541.05a.7.7,0,0,1-.43-.15l-30-22.84a.71.71,0,0,1,.86-1.14l30,22.84a.71.71,0,0,1,.14,1A.72.72,0,0,1,493.41,541.05Z"/></g><polygon points="496.96 546.2 497.69 530.34 612.92 523.48 612.92 539.77 496.96 546.2" fill="#525659"/><polygon points="550.51 550.33 549.09 568.88 619.04 558.89 622.63 540.33 550.51 550.33" fill="#390080"/><polygon points="550.51 550.33 549.09 568.88 619.04 558.89 622.63 540.33 550.51 550.33" opacity="0.2"/><path d="M543.38,565.32h-.12L469,552.94a.72.72,0,0,1,.24-1.41l74.23,12.37a.71.71,0,0,1,.59.82A.72.72,0,0,1,543.38,565.32Z" fill="#e6e6e6"/><ellipse cx="637.25" cy="588.52" rx="46.76" ry="48.18" fill="#f25d00"/><ellipse cx="637.25" cy="588.52" rx="46.76" ry="48.18" opacity="0.2"/><path d="M605,550.75a.7.7,0,0,1-.66-.46c-.1-.26-2.39-6.46-1-21.45,0-.61-.3-16.9,7.46-19.17l.82-.24c7.11-2.1,16-4.7,35.36-1.93.35.07,7.34,1.71,6.82,14.3l.93,17.78c0,.25-.39,3.27-1.58,4.77a.72.72,0,0,1-1.12-.89,9.74,9.74,0,0,0,1.28-3.93l-.93-17.72c.46-11.38-5.4-12.85-5.65-12.9-19-2.72-27.73-.17-34.71,1.89l-.82.24c-6.71,2-6.44,17.7-6.43,17.85-1.4,14.74.85,20.83.87,20.89a.71.71,0,0,1-.41.92A.6.6,0,0,1,605,550.75Z" fill="#f25d00"/><path d="M595.35,535.22l-2.67-6.55a1.44,1.44,0,0,1,.78-1.87l2.9-1.18a1.44,1.44,0,0,1,1.87.78l2.56,6.15Z" fill="#390080"/><path d="M606.91,553.89a1.41,1.41,0,0,1-1.29-.82l-4.23-9a1.42,1.42,0,0,1,2.58-1.21l4.23,9a1.43,1.43,0,0,1-.69,1.9A1.41,1.41,0,0,1,606.91,553.89Z" fill="#390080"/><path d="M587.79,550.26l31.09-14.2a11.24,11.24,0,0,0-8.83-7,12.18,12.18,0,0,0-7.51,1.49L594.36,534a12.4,12.4,0,0,0-7.67,12.48c0,.31.08.63.14,1Z" fill="#f25d00"/><path d="M587.79,550.26l31.09-14.2a11.24,11.24,0,0,0-8.83-7,12.18,12.18,0,0,0-7.51,1.49L594.36,534a12.4,12.4,0,0,0-7.67,12.48c0,.31.08.63.14,1Z" opacity="0.2"/><ellipse cx="629.39" cy="588.16" rx="46.04" ry="44.97" fill="#f25d00"/><ellipse cx="629.39" cy="588.16" rx="46.04" ry="44.97" fill="#fff" opacity="0.2"/><ellipse cx="629.39" cy="588.16" rx="40.93" ry="39.97" fill="#fff" opacity="0.2"/><circle cx="630.46" cy="586.02" r="3.57" fill="#390080"/><path d="M618.88,607.43a.74.74,0,0,1-.37-.1.72.72,0,0,1-.24-1l12.52-20.89a.73.73,0,0,1,.32-.28l24.45-10.73a.71.71,0,1,1,.58,1.3L631.9,586.39l-12.41,20.69A.7.7,0,0,1,618.88,607.43Z" fill="#f25d00"/><path d="M649.07,562.46a.7.7,0,0,1-.47-.17.71.71,0,0,1-.08-1l6-7.14a.71.71,0,0,1,1-.09.72.72,0,0,1,.09,1l-6,7.14A.72.72,0,0,1,649.07,562.46Z" fill="#f25d00"/><path d="M633.83,556.58a.71.71,0,0,1-.71-.71V546.2a.71.71,0,1,1,1.42,0v9.67A.71.71,0,0,1,633.83,556.58Z" fill="#f25d00"/><path d="M597,614.71a.74.74,0,0,1-.5-.2.71.71,0,0,1,0-1l7-7.28a.71.71,0,1,1,1,1l-7,7.28A.68.68,0,0,1,597,614.71Z" fill="#f25d00"/><path d="M661.34,618a.71.71,0,0,1-.53-.24l-6.24-6.93a.71.71,0,0,1,1.06-1l6.24,6.93a.71.71,0,0,1-.53,1.19Z" fill="#f25d00"/><path d="M659.73,574.6a.72.72,0,0,1-.15-1.42l10.59-2.35a.71.71,0,1,1,.3,1.39l-10.58,2.36Z" fill="#f25d00"/><path d="M672.58,594.58h-.13l-10.29-1.86a.72.72,0,0,1,.25-1.41l10.3,1.87a.72.72,0,0,1,.57.83A.71.71,0,0,1,672.58,594.58Z" fill="#f25d00"/><path d="M596.92,590.3h-.13l-10.3-1.87a.71.71,0,0,1,.26-1.4L597,588.88a.72.72,0,0,1-.12,1.42Z" fill="#f25d00"/><path d="M600.2,573.42a.71.71,0,0,1-.41-.13l-8.33-5.83a.7.7,0,0,1-.18-1,.71.71,0,0,1,1-.18l8.34,5.83a.71.71,0,0,1-.41,1.3Z" fill="#f25d00"/><path d="M614.05,628.85a.72.72,0,0,1-.32-.08.71.71,0,0,1-.32-1l4.28-8.56a.72.72,0,0,1,1.28.64l-4.29,8.56A.7.7,0,0,1,614.05,628.85Z" fill="#f25d00"/><path d="M639.87,630a.71.71,0,0,1-.72-.71v-9.73a.72.72,0,1,1,1.43,0v9.73A.71.71,0,0,1,639.87,630Z" fill="#f25d00"/><path d="M614.05,560.32a.71.71,0,0,1-.55-.26l-6.09-7.37a.72.72,0,0,1,.1-1,.7.7,0,0,1,1,.1l6.09,7.37a.73.73,0,0,1-.1,1A.69.69,0,0,1,614.05,560.32Z" fill="#f25d00"/><g opacity="0.2"><path d="M649.07,562.46a.7.7,0,0,1-.47-.17.71.71,0,0,1-.08-1l6-7.14a.71.71,0,0,1,1-.09.72.72,0,0,1,.09,1l-6,7.14A.72.72,0,0,1,649.07,562.46Z" fill="#fff"/><path d="M633.83,556.58a.71.71,0,0,1-.71-.71V546.2a.71.71,0,1,1,1.42,0v9.67A.71.71,0,0,1,633.83,556.58Z" fill="#fff"/><path d="M597,614.71a.74.74,0,0,1-.5-.2.71.71,0,0,1,0-1l7-7.28a.71.71,0,1,1,1,1l-7,7.28A.68.68,0,0,1,597,614.71Z" fill="#fff"/><path d="M661.34,618a.71.71,0,0,1-.53-.24l-6.24-6.93a.71.71,0,0,1,1.06-1l6.24,6.93a.71.71,0,0,1-.53,1.19Z" fill="#fff"/><path d="M659.73,574.6a.72.72,0,0,1-.15-1.42l10.59-2.35a.71.71,0,1,1,.3,1.39l-10.58,2.36Z" fill="#fff"/><path d="M672.58,594.58h-.13l-10.29-1.86a.72.72,0,0,1,.25-1.41l10.3,1.87a.72.72,0,0,1,.57.83A.71.71,0,0,1,672.58,594.58Z" fill="#fff"/><path d="M596.92,590.3h-.13l-10.3-1.87a.71.71,0,0,1,.26-1.4L597,588.88a.72.72,0,0,1-.12,1.42Z" fill="#fff"/><path d="M600.2,573.42a.71.71,0,0,1-.41-.13l-8.33-5.83a.7.7,0,0,1-.18-1,.71.71,0,0,1,1-.18l8.34,5.83a.71.71,0,0,1-.41,1.3Z" fill="#fff"/><path d="M614.05,628.85a.72.72,0,0,1-.32-.08.71.71,0,0,1-.32-1l4.28-8.56a.72.72,0,0,1,1.28.64l-4.29,8.56A.7.7,0,0,1,614.05,628.85Z" fill="#fff"/><path d="M639.87,630a.71.71,0,0,1-.72-.71v-9.73a.72.72,0,1,1,1.43,0v9.73A.71.71,0,0,1,639.87,630Z" fill="#fff"/><path d="M614.05,560.32a.71.71,0,0,1-.55-.26l-6.09-7.37a.72.72,0,0,1,.1-1,.7.7,0,0,1,1,.1l6.09,7.37a.73.73,0,0,1-.1,1A.69.69,0,0,1,614.05,560.32Z" fill="#fff"/></g><path d="M652.59,546.76a1.46,1.46,0,0,1-.6-.14,1.43,1.43,0,0,1-.69-1.89l3.25-7a1.43,1.43,0,0,1,1.9-.7,1.42,1.42,0,0,1,.69,1.9l-3.25,7A1.43,1.43,0,0,1,652.59,546.76Z" fill="#390080"/><path d="M641.17,531.05l30.64,15.15a11.23,11.23,0,0,0-.12-11.29,12.14,12.14,0,0,0-5.9-4.88l-10.69-4.38s-6.48-5.37-12.35,2.87Z" fill="#f25d00"/><path d="M641.17,531.05l30.64,15.15a11.23,11.23,0,0,0-.12-11.29,12.14,12.14,0,0,0-5.9-4.88l-10.69-4.38s-6.48-5.37-12.35,2.87Z" opacity="0.2"/><path d="M246.14,551.36c0-.58-2-58-11.37-67.14-9.2-9-19.78-.35-20.22,0l-.64-.77c.11-.09,11.7-9.56,21.55,0,9.68,9.42,11.6,65.45,11.68,67.83Z" fill="#390080"/><path d="M247,562.69c-.06-.68-6.37-68.8,18.47-97.32l.76.66C241.69,494.22,248,561.91,248,562.59Z" fill="#390080"/><path d="M245.58,555.48l-1-.07c0-.77,4.88-77.68-13.47-94.55l.68-.73C250.49,477.32,245.79,552.29,245.58,555.48Z" fill="#390080"/><path d="M248,555.45h-1c0-2.11.6-51.8,14.62-59.76a9.81,9.81,0,0,1,8.94-.84c8.42,3.51,12.6,18.55,12.77,19.19l-1,.26c0-.15-4.22-15.21-12.2-18.53a8.87,8.87,0,0,0-8.06.79C248.61,504.23,248,554.94,248,555.45Z" fill="#390080"/><path d="M242.44,555.47l-1-.06c0-.39,2.15-39.39-8.41-53.17-2.6-3.39-5.44-5-8.43-4.79-7,.49-12.82,10.67-12.88,10.77l-.87-.49c.25-.44,6.14-10.75,13.68-11.28,3.36-.24,6.48,1.51,9.29,5.18C244.61,515.71,242.54,553.86,242.44,555.47Z" fill="#390080"/><path d="M245.22,560.77c-.28-3.77-6.87-92.57,4.66-108.16l.81.6c-11.32,15.29-4.54,106.56-4.47,107.48Z" fill="#390080"/><path d="M273.74,503.59s-6.94,2.57-4.82,8.61S293,528.27,293,528.27s9.19-8.43.75-22.14S273.94,499.27,273.74,503.59Z" fill="#f25d00"/><path d="M243.55,492.08s7.39-.3,7.83,6.08-16.07,24-16.07,24-11.73-4.25-9.21-20.15S241.72,488.16,243.55,492.08Z" fill="#f25d00"/><path d="M237.28,461.65s4.94-.53,4.55-3.53-19.17-10.74-30.26,1.76c0,0,7.11,12.18,17.36,12.34S237.28,461.65,237.28,461.65Z" fill="#f25d00"/><path d="M246.48,454.28s-4.47,2.16-5.71-.6,10.59-19.28,26.59-14.46c0,0,.42,14.09-8.19,19.64S246.48,454.28,246.48,454.28Z" fill="#f25d00"/><path d="M223.13,501.16s3.4-2.74-.26-4.08-21.69-1-21.88,16.89c0,0,21,3.49,23.58-3.31S223.13,501.16,223.13,501.16Z" fill="#f25d00"/><path d="M265.93,461.12s-3.4-2.75.28-4.08,21.69-1,21.87,16.89c0,0-21,3.48-23.58-3.31S265.93,461.12,265.93,461.12Z" fill="#f25d00"/><path d="M254.83,475.5s-.29-3.34,2.41-2,12.08,11.44,2.35,21.06c0,0-13.11-9.72-10.75-14.76S254.83,475.5,254.83,475.5Z" fill="#f25d00"/><path d="M220.09,480.27s2-2.66-1-3-16.32,3.21-13.22,16.57c0,0,16.28-1.22,17-6.77S220.09,480.27,220.09,480.27Z" fill="#f25d00"/><path d="M273.74,503.59s-6.94,2.57-4.82,8.61S293,528.27,293,528.27s9.19-8.43.75-22.14S273.94,499.27,273.74,503.59Z" fill="#fff" opacity="0.2" style="isolation:isolate"/><path d="M243.55,492.08s7.39-.3,7.83,6.08-16.07,24-16.07,24-11.73-4.25-9.21-20.15S241.72,488.16,243.55,492.08Z" fill="#fff" opacity="0.2" style="isolation:isolate"/><path d="M237.28,461.65s4.94-.53,4.55-3.53-19.17-10.74-30.26,1.76c0,0,7.11,12.18,17.36,12.34S237.28,461.65,237.28,461.65Z" fill="#fff" opacity="0.2" style="isolation:isolate"/><path d="M246.48,454.28s-4.47,2.16-5.71-.6,10.59-19.28,26.59-14.46c0,0,.42,14.09-8.19,19.64S246.48,454.28,246.48,454.28Z" fill="#fff" opacity="0.2" style="isolation:isolate"/><path d="M223.13,501.16s3.4-2.74-.26-4.08-21.69-1-21.88,16.89c0,0,21,3.49,23.58-3.31S223.13,501.16,223.13,501.16Z" fill="#fff" opacity="0.2" style="isolation:isolate"/><path d="M265.93,461.12s-3.4-2.75.28-4.08,21.69-1,21.87,16.89c0,0-21,3.48-23.58-3.31S265.93,461.12,265.93,461.12Z" fill="#fff" opacity="0.2" style="isolation:isolate"/><path d="M254.83,475.5s-.29-3.34,2.41-2,12.08,11.44,2.35,21.06c0,0-13.11-9.72-10.75-14.76S254.83,475.5,254.83,475.5Z" fill="#fff" opacity="0.2" style="isolation:isolate"/><path d="M220.09,480.27s2-2.66-1-3-16.32,3.21-13.22,16.57c0,0,16.28-1.22,17-6.77S220.09,480.27,220.09,480.27Z" fill="#fff" opacity="0.2" style="isolation:isolate"/><polygon points="275.05 604.93 219.24 604.93 213.21 543.83 281.07 543.83 275.05 604.93" fill="#407bff"/><polygon points="275.05 604.93 219.24 604.93 213.21 543.83 281.07 543.83 275.05 604.93" fill="#390080"/><rect x="210.22" y="537.08" width="73.82" height="13.48" fill="#390080"/><rect x="210.22" y="537.08" width="73.82" height="13.48" fill="#fff" opacity="0.2" style="isolation:isolate"/></svg>