 <!DOCTYPE svg PUBLIC "-//W3C//DTD SVG 1.1//EN" "http://www.w3.org/Graphics/SVG/1.1/DTD/svg11.dtd">
<svg id="bcd67f71-e0aa-479d-92b7-99a493c0b2a8" data-name="Layer 1" xmlns="http://www.w3.org/2000/svg" width="865.76" height="682.89" viewBox="0 0 865.76 682.89">
<defs>
<style xmlns="http://www.w3.org/1999/xhtml">*, ::after, ::before { box-sizing: border-box; }
img, svg { vertical-align: middle; }
</style>
<style xmlns="http://www.w3.org/1999/xhtml">*, body, html { -webkit-font-smoothing: antialiased; }
img, svg { max-width: 100%; }
</style>
</defs>
<rect x="431.41" y="261.83" width="2.93" height="636.68" transform="translate(-149.28 1010.38) rotate(-89.74)" fill="#221778" data-secondary="true"/>
<polygon points="493.66 370.85 521.7 367.49 594.71 395.83 615.4 424.08 534.28 453.64 488.31 431.63 493.66 370.85" fill="#f7a78d"/>
<rect x="136.96" y="10.11" width="334.75" height="439.85" fill="#ccc"/>
<path d="M231.09,62.65V31h4c1.71,5.86,6.11,22.45,6.62,25h.08c-.19-4.25-.24-8.71-.24-13.87V31h3.17V62.65h-3.88c-1.68-5.94-6.22-23.36-6.82-25.88h0c.22,3.81.3,8.87.3,14.58v11.3Z" fill="#221778" data-secondary="true"/>
<path d="M251.92,51.28v3.94c0,2.4.48,4.9,2.85,4.9s2.71-1.86,2.71-4.17v-.2h3.31v.18c0,2.79-.65,7.09-6,7.09-5,0-6.17-3.3-6.17-8.2v-9c0-3.66,1.28-7.69,6.22-7.69,4.66,0,6,3.45,6,7.7v5.43Zm5.68-2.75v-3c0-2.24-.37-4.46-2.78-4.46s-2.88,1.88-2.88,4.49v3Z" fill="#221778" data-secondary="true"/>
<path d="M266.24,38.53C268,50.85,268.57,54.89,268.81,58h.05c.33-3.13,1-7,3.16-19.47h3.36c2.08,12.69,2.78,16.41,3,19.44h.05c.24-2.65.56-5.57,2.64-19.44h3.4l-4.38,24.12h-3.52c-1.29-8-2.58-15-3-18.7h-.05c-.28,3.52-1.52,9.79-3.16,18.7h-3.56l-4.16-24.12Z" fill="#221778" data-secondary="true"/>
<path d="M304.12,47.32H297V59.55h8.06l-.46,3.1h-11V31h10.87v3.12H297V44.23h7.1Z" fill="#221778" data-secondary="true"/>
<path d="M307.62,45.87c0-4.84,0-6.15,0-7.34h3.2a19.33,19.33,0,0,1,.14,2.41,4.34,4.34,0,0,1,4.42-2.79c2.64,0,4.76,1.51,4.76,5.94V62.65h-3.37V44.75c0-2.34-.79-3.52-2.53-3.52-2,0-3.21,1-3.21,5.57V62.65h-3.37Z" fill="#221778" data-secondary="true"/>
<path d="M322.17,38.53h2.76V32.6h3.34v5.93h3.4v3h-3.4V57.71c0,1.24.22,2.43,1.74,2.43a7.71,7.71,0,0,0,1.52-.14v2.61a7.84,7.84,0,0,1-2.62.36c-2.34,0-4-1-4-4.65V41.52h-2.76Z" fill="#221778" data-secondary="true"/>
<path d="M334.11,46.74c0-3.89,0-6.07-.05-8.21h3.21c.05.63.12,2.15.12,3.77a5.21,5.21,0,0,1,5.08-4.1v4.16c-3,0-5,1.75-5,6.1V62.65h-3.36Z" fill="#221778" data-secondary="true"/>
<path d="M344.91,38.53h3.37V62.65h-3.37Zm0-8.93h3.37v4.89h-3.37Z" fill="#221778" data-secondary="true"/>
<path d="M355.34,51.28v3.94c0,2.4.48,4.9,2.85,4.9s2.71-1.86,2.71-4.17v-.2h3.31v.18c0,2.79-.65,7.09-6,7.09-5,0-6.17-3.3-6.17-8.2v-9c0-3.66,1.27-7.69,6.22-7.69,4.65,0,6,3.45,6,7.7v5.43ZM361,48.53v-3c0-2.24-.36-4.46-2.77-4.46s-2.88,1.88-2.88,4.49v3Z" fill="#221778" data-secondary="true"/>
<path d="M370.18,55.47v1.06c0,2.34.93,3.59,2.65,3.59s2.56-1.15,2.56-3.37-.69-3.44-3.44-5.25c-3.23-2.13-4.73-3.83-4.73-7.17,0-3.57,1.72-6.18,5.66-6.18,4.28,0,5.59,2.72,5.59,6.34V45.6h-3.28V44.26c0-2-.59-3.21-2.34-3.21s-2.26,1.12-2.26,3,.58,2.7,3,4.31c3.55,2.32,5.22,4,5.22,8,0,4.38-2,6.71-6.11,6.71-4.73,0-5.93-3.13-5.93-6.46V55.47Z" fill="#221778" data-secondary="true"/>
<rect x="156.27" y="81.8" width="83.63" height="1.47" fill="#221778" data-secondary="true"/>
<rect x="245.25" y="81.8" width="33.01" height="1.47" fill="#221778" data-secondary="true"/>
<rect x="301.92" y="81.8" width="71.08" height="1.47" fill="#221778" data-secondary="true"/>
<path d="M372.06,108.7H155.54V90.18H372.06Zm-215-1.47H370.6V91.65H157Z" fill="#221778" data-secondary="true"/>
<path d="M372.06,125.75H155.54V107.23H372.06Zm-215-1.47H370.6V108.7H157Z" fill="#221778" data-secondary="true"/>
<path d="M372.06,142.8H155.54V124.28H372.06Zm-215-1.47H370.6V125.75H157Z" fill="#221778" data-secondary="true"/>
<path d="M353.2,256.82H155.54V151.53H353.2ZM157,255.35H351.73V153H157Z" fill="#221778" data-secondary="true"/>
<path d="M452.87,256.82h-93V151.53h93Zm-91.5-1.47h90V153h-90Z" fill="#221778" data-secondary="true"/>
<path d="M452.87,142.8h-74.8V90.18h74.8Zm-73.33-1.47H451.4V91.65H379.54Z" fill="#221778" data-secondary="true"/>
<path d="M372.2,299.79H155.67V281.27H372.2Zm-215.06-1.47H370.73V282.74H157.14Z" fill="#221778" data-secondary="true"/>
<path d="M372.2,316.84H155.67V298.32H372.2Zm-215.06-1.47H370.73V299.79H157.14Z" fill="#221778" data-secondary="true"/>
<path d="M372.2,333.89H155.67V315.37H372.2Zm-215.06-1.47H370.73V316.84H157.14Z" fill="#221778" data-secondary="true"/>
<path d="M353.33,416.54H155.67V342.62H353.33Zm-196.19-1.47H351.86v-71H157.14Z" fill="#221778" data-secondary="true"/>
<path d="M453,416.54H360V342.62h93Zm-91.49-1.47h90v-71h-90Z" fill="#221778" data-secondary="true"/>
<rect x="391.77" y="81.8" width="57.14" height="1.47" fill="#221778" data-secondary="true"/>
<path d="M453,333.89H378.2V281.27H453Zm-73.33-1.47h71.86V282.74H379.67Z" fill="#221778" data-secondary="true"/>
<ellipse cx="554.83" cy="360.27" rx="77.37" ry="48.03" transform="translate(122.71 861.17) rotate(-82.21)" fill="#f9b499"/>
<ellipse cx="596.66" cy="375.25" rx="22.59" ry="12.8" transform="translate(17.76 777.35) rotate(-66.95)" fill="#f9b499"/>
<path d="M390.64,545.34s-25.15,7.8-25.15,39.41c0,0-42.73-.62-48.56-25.54a24.59,24.59,0,0,1,3.37-18.64l50.22-79.49L381.84,433s8.38-34.79,38.56-43.17l78.65-32.34,7.05,11.83S495.86,406.58,521,429.64c0,0,19,22.95,47.26,4.09,0,0,20.49-11.48,26.42-37.9,0,0,10-4,15.08-19.21,0,0,71.06,30.7,78,75l32.8,78.6s9.64,20.54,5.45,32.28c0,0,4.61,14.67-17.61,18,0,0-64.56,8.8-106.48-.42,0,0,7.55-15.93-2.09-26.83,0,0,37.31-10.9,52.82-18.45l-34.38-54.08s-18.07,40.33-21.61,98.66H436.18s4.14-42.9-3.41-103.27l-45.06,67.08Z" fill="#f26100" data-primary="true"/>
<ellipse cx="510.73" cy="348.26" rx="12.8" ry="22.59" fill="#f9b499"/>
<path d="M501.65,335.94s-11.4-1.26-5.91-14.35c0,0,.42-4.64-5.07-9.29,0,0-8-5.06,5.49-14.35,0,0,4.22-2.11,1.69-8,0,0-8-11.39,3.8-13.51,0,0,3.38-.84,3-8,0,0-.42-9.28,11.82-7.17,0,0,3,0,3.38-6.76h9.49s2.52-6.24,15.1-5.61c0,0,4.91.94,10-3.78,0,0,11.69-6,18.92,2.83,0,0,1.89.63,5-2.2,0,0,8.81-2.2,18.87,7.23,0,0,3.14,2.83,8.17.32,0,0,8.18,0,13.21,9.12,0,0,10.06,5,11.32,16a10.46,10.46,0,0,0,3.45,8.49s10.06,8.17,5.66,21.38c0,0-1.86,6.6,1.12,8.8a15.83,15.83,0,0,1-2.06,13.21s-1.89,4.39-.63,5.65c0,0,2.83,9.52-8.17,14.36,0,0-21.7,9.23-26.1,22.75,0,0-6-2.75-3.14-22.75,0,0,4.71-23.79-3.46-22.53,0,0-32.7,22-45.91,3.78,0,0-13.52-22.64-16.66-11.95,0,0-10.37,33.33-17.29,19.81,0,0-5.35-.23-5.66,10.89C511.06,350.3,507.67,351.79,501.65,335.94Z" fill="#221778" data-secondary="true"/>
<polygon points="134.76 643.59 147.08 507.32 330.45 516.75 320.31 651.56 134.76 643.59" fill="#221778" data-secondary="true"/>
<path d="M134.76,635.62s96.34-13,131.91-66.69c0,0,31.89-42,63.79-52.18l-183.38-9.43Z" opacity="0.2"/>
<polygon points="324.39 597.36 375.13 600.26 320.31 651.56 324.39 597.36" fill="#221778" data-secondary="true"/>
<path d="M342.85,617.45s-21.68,22.61-21.58,21.36,1.61-22.1,1.61-22.1Z" opacity="0.2"/>
<polygon points="409.5 597.36 430.05 672.78 579.71 658.95 520.18 584.75 407.62 589.36 409.5 597.36" fill="#ccc"/>
<path d="M365.49,584.75l27.67,5.87,20.12,12.16,17.19,2.51s13,1.26,20.12-4.61c0,0,8.38.48,10.48-3.32,0,0-.84-2.55-8.81-5.9,0,0,6.71.42,2.52-6.71,0,0,6.71,1.48,1.68-9.11l-4.2-11.06s5-4.56-31.44-5.4c0,0-6.28-1.26-18,1.67,0,0-8.81-9.22-12.16-15.51C390.64,545.34,365.49,552.47,365.49,584.75Z" fill="#f9b499"/>
<path d="M483.29,589.78s-3.67-.42-2.1-2.94l14.15-20.43A31.28,31.28,0,0,1,518,559.18s66.23,1.15,81.85-5.87c0,0,9.7,8,2.09,26.83,0,0-11,1.36-16.35-2.41,0,0-12.39,13.48-33.34,7.37a26.25,26.25,0,0,0-19.69,2.22c-6.91,3.7-14.94,6.91-15.82,2.46a47.24,47.24,0,0,1,4.91-5,1.83,1.83,0,0,0-1-3.2h0a1.84,1.84,0,0,0-1.37.4l-11.13,9a6.46,6.46,0,0,1-3.71,1.49c-1.48.07-2.78-.51-1.22-3.45,0,0,8.8-12.26,11.63-13.68,0,0-13.47,2.77-20.32,11.23a11.33,11.33,0,0,1-6.63,4.13C486,591.08,484.18,591,483.29,589.78Z" fill="#f9b499"/>
<path d="M437.19,565.86l-8.82-31.1a2.58,2.58,0,0,1,1.48-3.07h0a2.56,2.56,0,0,1,3.45,1.62l10.84,35.53Z" fill="#221778" data-secondary="true"/>
<path d="M456.86,576.51c-6.9-7-25.9-11.53-26.09-11.57l.14-.72c.77.15,18.78,3.87,25.55,11.42Z" fill="#f7a78d"/>
<circle cx="229.89" cy="575.64" r="11.05" fill="#221778" data-secondary="true"/>
</svg>